HIERARCHY
ROOT Hips
{
	OFFSET 0.000000 1.471914 24.280096
	CHANNELS 6 Xposition Yposition Zposition Xrotation Yrotation Zrotation
	JOINT Spine
	{
		OFFSET 0.000000 0.900110 1.860670
		CHANNELS 6 Xposition Yposition Zposition Xrotation Yrotation Zrotation
		JOINT Spine1
		{
			OFFSET 0.000000 0.400320 2.270309
			CHANNELS 6 Xposition Yposition Zposition Xrotation Yrotation Zrotation
			JOINT Spine2
			{
				OFFSET 0.000000 0.200920 2.296560
				CHANNELS 6 Xposition Yposition Zposition Xrotation Yrotation Zrotation
				JOINT Spine3
				{
					OFFSET 0.000000 0.000000 2.305330
					CHANNELS 6 Xposition Yposition Zposition Xrotation Yrotation Zrotation
					JOINT Neck
					{
						OFFSET 0.000000 -0.864490 6.051487
						CHANNELS 6 Xposition Yposition Zposition Xrotation Yrotation Zrotation
						JOINT Head
						{
							OFFSET 0.000000 -0.550429 3.121674
							CHANNELS 6 Xposition Yposition Zposition Xrotation Yrotation Zrotation
							End Site
							{
								OFFSET 0.000000 0.000000 3.731750
							}
						}
					}
					JOINT RightShoulder
					{
						OFFSET -0.788280 -1.313800 4.256718
						CHANNELS 6 Xposition Yposition Zposition Xrotation Yrotation Zrotation
						JOINT RightArm
						{
							OFFSET -3.915130 0.000000 0.000000
							CHANNELS 6 Xposition Yposition Zposition Xrotation Yrotation Zrotation
							JOINT RightForeArm
							{
								OFFSET -6.914910 0.000000 0.000000
								CHANNELS 6 Xposition Yposition Zposition Xrotation Yrotation Zrotation
								JOINT RightHand
								{
									OFFSET -6.096219 0.000000 0.000000
									CHANNELS 6 Xposition Yposition Zposition Xrotation Yrotation Zrotation
									JOINT RightHandEnd
									{
										OFFSET -1.749950 0.000000 0.000000
										CHANNELS 6 Xposition Yposition Zposition Xrotation Yrotation Zrotation
										End Site
										{
											OFFSET -1.749950 0.000000 0.000000
										}
									}
									JOINT RightHandThumb1
									{
										OFFSET -0.699980 -1.166630 -0.466648
										CHANNELS 6 Xposition Yposition Zposition Xrotation Yrotation Zrotation
										End Site
										{
											OFFSET -1.690319 -0.452920 0.000000
										}
									}
								}
							}
						}
					}
					JOINT LeftShoulder
					{
						OFFSET 0.788280 -1.313800 4.256718
						CHANNELS 6 Xposition Yposition Zposition Xrotation Yrotation Zrotation
						JOINT LeftArm
						{
							OFFSET 3.915130 0.000000 0.000000
							CHANNELS 6 Xposition Yposition Zposition Xrotation Yrotation Zrotation
							JOINT LeftForeArm
							{
								OFFSET 6.914910 0.000000 0.000000
								CHANNELS 6 Xposition Yposition Zposition Xrotation Yrotation Zrotation
								JOINT LeftHand
								{
									OFFSET 6.096219 0.000000 0.000000
									CHANNELS 6 Xposition Yposition Zposition Xrotation Yrotation Zrotation
									JOINT LeftHandEnd
									{
										OFFSET 1.749950 0.000000 0.000000
										CHANNELS 6 Xposition Yposition Zposition Xrotation Yrotation Zrotation
										End Site
										{
											OFFSET 1.749950 0.000000 0.000000
										}
									}
									JOINT LeftHandThumb1
									{
										OFFSET 0.699980 -1.166630 -0.466648
										CHANNELS 6 Xposition Yposition Zposition Xrotation Yrotation Zrotation
										End Site
										{
											OFFSET 1.690319 -0.452920 0.000000
										}
									}
								}
							}
						}
					}
				}
			}
		}
	}
	JOINT RightUpLeg
	{
		OFFSET -2.338570 -0.252550 -0.551512
		CHANNELS 6 Xposition Yposition Zposition Xrotation Yrotation Zrotation
		JOINT RightLeg
		{
			OFFSET 0.000000 0.000000 -10.744959
			CHANNELS 6 Xposition Yposition Zposition Xrotation Yrotation Zrotation
			JOINT RightFoot
			{
				OFFSET 0.000000 -0.000001 -10.930849
				CHANNELS 6 Xposition Yposition Zposition Xrotation Yrotation Zrotation
				JOINT RightToeBase
				{
					OFFSET 0.000000 -4.087269 -1.487650
					CHANNELS 6 Xposition Yposition Zposition Xrotation Yrotation Zrotation
					End Site
					{
						OFFSET 0.000000 -1.891870 0.000000
					}
				}
			}
		}
	}
	JOINT LeftUpLeg
	{
		OFFSET 2.338570 -0.252550 -0.551512
		CHANNELS 6 Xposition Yposition Zposition Xrotation Yrotation Zrotation
		JOINT LeftLeg
		{
			OFFSET 0.000000 0.000000 -10.744959
			CHANNELS 6 Xposition Yposition Zposition Xrotation Yrotation Zrotation
			JOINT LeftFoot
			{
				OFFSET 0.000000 -0.000001 -10.930849
				CHANNELS 6 Xposition Yposition Zposition Xrotation Yrotation Zrotation
				JOINT LeftToeBase
				{
					OFFSET 0.000000 -4.087269 -1.487650
					CHANNELS 6 Xposition Yposition Zposition Xrotation Yrotation Zrotation
					End Site
					{
						OFFSET 0.000000 -1.891870 0.000000
					}
				}
			}
		}
	}
}
MOTION
Frames: 6
Frame Time: 0.041667
0.000142 26.984196 32.299400 -6.685878 -10.004301 69.126705 -0.000007 0.900090 1.860673 23.023063 -8.102759 1.803098 0.000012 0.400279 2.270319 0.000004 -0.000001 0.000015 0.000010 0.200883 2.296581 -0.000001 -0.000001 0.000004 0.000021 0.000025 2.305319 0.000030 0.000001 6.491308 -0.000023 -0.864436 6.051416 -9.182669 4.933263 177.194245 0.000041 -0.550416 3.121677 -0.000008 -0.000003 -0.000009 -0.788277 -1.313725 4.256827 177.016606 61.215529 -28.221746 -3.915123 -0.000021 -0.000008 -0.000003 -0.000005 0.000005 -6.914845 0.000004 0.000018 0.000013 0.000006 -71.497075 -6.096196 0.000028 0.000029 -0.000002 -0.000012 -0.000022 -1.749889 -0.000036 0.000019 -0.000005 0.000001 -0.000003 -0.699961 -1.166604 -0.466639 -0.000028 -0.000010 -0.000032 0.788247 -1.313748 4.256763 -154.234633 -77.457542 36.226155 3.915237 0.000003 -0.000031 0.000004 0.000003 0.000003 6.914947 -0.000068 0.000001 -0.000010 0.000005 40.149095 6.096266 0.000175 -0.000038 0.000026 -0.000055 -0.000078 1.749988 0.000005 0.000071 -0.000011 -0.000006 -0.000003 0.699985 -1.166603 -0.466637 0.000027 -0.000001 -0.000034 -2.338580 -0.252544 -0.551486 -61.662340 -8.720530 -4.091320 0.000016 -0.000026 -10.744952 76.844683 -2.751830 -6.356938 -0.000034 0.000071 -10.930848 0.000036 -0.000000 0.000002 -0.000014 -4.087232 -1.487626 0.000004 0.000001 -0.000001 2.338577 -0.252543 -0.551502 -59.501521 10.420363 -4.052276 -0.000017 -0.000006 -10.744925 86.408689 -8.563579 12.813576 0.000007 0.000008 -10.930867 -0.000012 0.000001 -0.000002 -0.000053 -4.087197 -1.487646 -0.000002 0.000001 -0.000002 
0.000145 26.984196 32.299400 -6.638257 -10.024250 69.035550 -0.000011 0.900090 1.860676 23.106465 -8.198021 1.806082 0.000015 0.400281 2.270317 0.000004 -0.000001 0.000014 0.000011 0.200883 2.296566 0.000000 -0.000001 0.000003 0.000024 0.000027 2.305323 0.000027 -0.000003 6.530355 -0.000024 -0.864438 6.051419 -8.992149 5.027632 176.312618 0.000045 -0.550415 3.121670 -0.000008 -0.000002 -0.000007 -0.788281 -1.313727 4.256827 177.037083 61.170778 -28.291839 -3.915121 -0.000021 -0.000012 -0.000001 -0.000006 0.000004 -6.914850 0.000004 0.000017 0.000012 0.000004 -71.705976 -6.096195 0.000026 0.000037 -0.000002 -0.000016 -0.000024 -1.749894 -0.000030 0.000023 -0.000001 -0.000001 -0.000001 -0.699965 -1.166598 -0.466636 -0.000026 -0.000009 -0.000029 0.788250 -1.313751 4.256767 -153.243941 -77.406910 37.133225 3.915240 0.000004 -0.000038 0.000001 0.000005 0.000002 6.914943 -0.000067 0.000001 -0.000007 0.000006 40.360261 6.096262 0.000171 -0.000038 0.000026 -0.000050 -0.000074 1.749989 0.000005 0.000071 -0.000009 -0.000011 -0.000002 0.699987 -1.166603 -0.466641 0.000025 -0.000004 -0.000035 -2.338585 -0.252544 -0.551485 -61.792783 -8.819015 -4.089461 0.000014 -0.000029 -10.744955 77.142971 -2.722697 -6.473455 -0.000033 0.000073 -10.930855 0.000038 0.000000 0.000002 -0.000022 -4.087230 -1.487631 0.000004 -0.000000 0.000001 2.338573 -0.252539 -0.551502 -59.617470 10.321933 -4.047713 -0.000015 -0.000007 -10.744927 86.506572 -8.362180 12.698775 0.000007 0.000009 -10.930863 -0.000015 -0.000001 -0.000004 -0.000048 -4.087196 -1.487648 -0.000003 0.000002 -0.000004 
0.000147 26.984196 32.299397 -6.655163 -10.072180 68.969509 -0.000008 0.900089 1.860673 23.107624 -8.128243 1.776187 0.000012 0.400282 2.270325 0.000003 -0.000001 0.000013 0.000012 0.200884 2.296577 0.000001 -0.000001 0.000003 0.000023 0.000027 2.305327 0.000029 -0.000004 6.334103 -0.000023 -0.864437 6.051421 -8.864848 4.938800 176.354596 0.000043 -0.550415 3.121670 -0.000008 -0.000002 -0.000011 -0.788276 -1.313726 4.256828 176.658881 61.299418 -27.800050 -3.915116 -0.000020 -0.000008 -0.000001 -0.000004 0.000004 -6.914852 0.000005 0.000013 0.000011 0.000006 -72.195284 -6.096197 0.000030 0.000031 -0.000005 -0.000014 -0.000024 -1.749894 -0.000030 0.000016 -0.000003 0.000001 -0.000001 -0.699965 -1.166601 -0.466641 -0.000028 -0.000008 -0.000032 0.788256 -1.313750 4.256763 -154.199717 -77.702534 36.185919 3.915237 0.000003 -0.000042 0.000002 0.000002 0.000003 6.914948 -0.000067 -0.000002 -0.000007 0.000008 40.540946 6.096265 0.000172 -0.000047 0.000026 -0.000056 -0.000075 1.749988 0.000005 0.000064 -0.000007 -0.000009 0.000006 0.699987 -1.166600 -0.466640 0.000024 -0.000001 -0.000030 -2.338582 -0.252548 -0.551483 -61.668897 -8.904120 -4.018144 0.000013 -0.000028 -10.744953 76.984134 -2.801941 -6.580830 -0.000033 0.000072 -10.930847 0.000036 -0.000001 0.000000 -0.000022 -4.087232 -1.487629 0.000003 -0.000000 -0.000002 2.338576 -0.252543 -0.551498 -59.474712 10.012020 -3.969076 -0.000016 -0.000008 -10.744929 86.264012 -8.275297 12.353057 0.000007 0.000009 -10.930864 -0.000014 -0.000001 -0.000003 -0.000052 -4.087195 -1.487647 -0.000002 0.000002 -0.000000 
0.000136 26.984201 32.299412 -6.505662 -10.123653 69.202131 -0.000009 0.900090 1.860677 22.931696 -8.150186 1.737540 0.000013 0.400283 2.270324 0.000003 -0.000001 0.000010 0.000011 0.200884 2.296576 -0.000000 -0.000000 -0.000001 0.000021 0.000025 2.305316 0.000029 -0.000002 6.080110 -0.000026 -0.864439 6.051429 -8.495981 4.890671 175.887138 0.000041 -0.550416 3.121670 -0.000007 -0.000002 -0.000010 -0.788281 -1.313726 4.256838 175.735194 61.556950 -26.669510 -3.915112 -0.000019 -0.000008 -0.000001 -0.000005 0.000005 -6.914851 0.000004 0.000013 0.000012 -0.000000 -72.506693 -6.096198 0.000028 0.000032 0.000000 -0.000013 -0.000022 -1.749894 -0.000032 0.000023 -0.000002 0.000001 -0.000002 -0.699965 -1.166607 -0.466639 -0.000026 -0.000010 -0.000033 0.788247 -1.313750 4.256774 -155.220980 -77.604466 35.108364 3.915234 0.000002 -0.000035 0.000001 0.000006 0.000002 6.914949 -0.000068 0.000002 -0.000006 0.000006 40.668930 6.096267 0.000170 -0.000038 0.000026 -0.000056 -0.000075 1.749987 0.000007 0.000071 -0.000009 -0.000008 0.000000 0.699986 -1.166600 -0.466637 0.000027 -0.000002 -0.000031 -2.338582 -0.252545 -0.551485 -61.525422 -8.832440 -3.953093 0.000016 -0.000031 -10.744951 76.937819 -2.950888 -6.532788 -0.000035 0.000071 -10.930853 0.000036 0.000000 -0.000001 -0.000020 -4.087229 -1.487627 0.000003 -0.000000 0.000001 2.338573 -0.252540 -0.551502 -59.317632 9.752922 -3.899768 -0.000017 -0.000002 -10.744925 86.245461 -8.239215 12.069322 0.000006 0.000010 -10.930863 -0.000015 0.000001 -0.000003 -0.000050 -4.087196 -1.487648 -0.000001 0.000000 -0.000001 
0.000140 26.984196 32.299400 -6.405503 -10.091056 69.284974 -0.000007 0.900092 1.860673 22.777904 -8.169388 1.722748 0.000012 0.400280 2.270319 0.000005 -0.000001 0.000014 0.000010 0.200884 2.296577 0.000000 -0.000001 0.000003 0.000024 0.000027 2.305319 0.000029 -0.000001 6.136321 -0.000022 -0.864438 6.051421 -8.527097 4.834446 175.926822 0.000044 -0.550415 3.121666 -0.000009 -0.000002 -0.000011 -0.788280 -1.313728 4.256835 176.103560 61.586354 -26.998102 -3.915116 -0.000021 -0.000012 -0.000002 -0.000004 0.000004 -6.914851 0.000004 0.000017 0.000011 0.000001 -72.449941 -6.096194 0.000038 0.000028 -0.000001 -0.000013 -0.000023 -1.749892 -0.000029 0.000020 -0.000004 0.000003 -0.000001 -0.699964 -1.166604 -0.466638 -0.000028 -0.000008 -0.000028 0.788251 -1.313751 4.256776 -151.517064 -76.928400 38.829735 3.915238 0.000002 -0.000042 0.000001 0.000003 0.000003 6.914950 -0.000068 -0.000006 -0.000006 0.000005 40.807286 6.096268 0.000173 -0.000035 0.000025 -0.000055 -0.000076 1.749988 0.000005 0.000075 -0.000009 -0.000007 -0.000002 0.699989 -1.166601 -0.466630 0.000027 -0.000001 -0.000029 -2.338580 -0.252542 -0.551488 -61.312470 -8.858710 -3.936499 0.000012 -0.000026 -10.744953 76.683470 -2.971327 -6.542617 -0.000036 0.000074 -10.930850 0.000036 0.000000 0.000001 -0.000018 -4.087230 -1.487629 0.000003 0.000001 -0.000000 2.338577 -0.252539 -0.551505 -59.295420 9.696868 -3.889470 -0.000020 -0.000002 -10.744925 86.211146 -8.150972 12.006852 0.000008 0.000009 -10.930862 -0.000009 0.000002 -0.000003 -0.000051 -4.087199 -1.487648 0.000003 0.000001 -0.000003 
0.000139 26.984194 32.299408 -6.384355 -10.138975 69.350797 -0.000010 0.900086 1.860681 22.825046 -8.095537 1.686037 0.000012 0.400280 2.270324 0.000005 -0.000001 0.000013 0.000012 0.200885 2.296570 0.000001 -0.000001 0.000005 0.000021 0.000029 2.305316 0.000031 0.000001 6.030366 -0.000026 -0.864435 6.051420 -8.285194 4.923130 175.227765 0.000044 -0.550413 3.121662 -0.000009 -0.000002 -0.000007 -0.788282 -1.313725 4.256829 175.314919 61.860996 -26.053951 -3.915118 -0.000020 -0.000008 -0.000002 -0.000004 0.000004 -6.914845 0.000005 0.000017 0.000010 -0.000000 -73.090257 -6.096195 0.000029 0.000036 -0.000002 -0.000008 -0.000024 -1.749893 -0.000029 0.000022 -0.000003 0.000001 -0.000001 -0.699966 -1.166601 -0.466640 -0.000030 -0.000009 -0.000028 0.788252 -1.313748 4.256772 -151.941561 -77.237268 38.482952 3.915240 0.000003 -0.000034 -0.000001 0.000004 0.000002 6.914947 -0.000067 -0.000006 -0.000008 0.000006 40.656250 6.096265 0.000169 -0.000038 0.000021 -0.000053 -0.000073 1.749992 0.000001 0.000072 -0.000009 -0.000009 -0.000004 0.699988 -1.166605 -0.466637 0.000024 -0.000003 -0.000034 -2.338583 -0.252548 -0.551484 -61.384433 -8.934746 -3.848944 0.000014 -0.000027 -10.744955 76.677616 -3.017260 -6.671124 -0.000035 0.000073 -10.930851 0.000038 -0.000000 0.000001 -0.000021 -4.087230 -1.487628 0.000004 -0.000000 0.000001 2.338576 -0.252542 -0.551502 -59.221640 9.764182 -3.795905 -0.000021 -0.000007 -10.744928 86.335927 -8.296011 12.033521 0.000004 0.000010 -10.930861 -0.000014 0.000001 -0.000004 -0.000049 -4.087198 -1.487647 0.000003 0.000002 -0.000003 
